Coordinates
version=1
nRows=9
nColumns=24
inDegrees=yes

Units are S.I. units (second, meters, Newtons, ...)
Angles are in degrees.

endheader
time	pelvis_tilt	pelvis_list	pelvis_rotation	pelvis_tx	pelvis_ty	pelvis_tz	hip_flexion_r	hip_adduction_r	hip_rotation_r	knee_angle_r	ankle_angle_r	subtalar_angle_r	mtp_angle_r	hip_flexion_l	hip_adduction_l	hip_rotation_l	knee_angle_l	ankle_angle_l	subtalar_angle_l	mtp_angle_l	lumbar_extension	lumbar_bending	lumbar_rotation
      4.17500000	    -17.22527123	     -2.71351157	     -1.47316008	     -1.29114512	     -0.00050558	     -0.23478710	      7.57345913	      8.72712375	     11.33426688	     -5.59546693	      1.98667834	     -5.90456078	      1.10427450	     44.69550230	      1.17904310	      6.06613191	    -43.35669096	      3.24151319	     -2.35007880	    -34.27365123	     11.81075569	      1.47131368	      5.93231002
      4.18000000	    -17.21931713	     -2.58488779	     -1.69127757	     -1.28440297	     -0.00060975	     -0.23456379	      6.83435516	      8.56504296	     11.21723102	     -5.12666438	      1.91493534	     -5.52281214	      1.25820544	     44.76748965	      1.11653458	      6.30292791	    -41.30508218	      3.03074170	     -2.50973191	    -34.60203266	     11.75892742	      1.37780496	      6.14308871
      4.18500000	    -17.19787419	     -2.45041955	     -1.91337468	     -1.27764347	     -0.00078562	     -0.23431958	      6.10171609	      8.39702740	     11.05003259	     -4.69941787	      1.88281711	     -5.06884346	      1.48885835	     44.78261738	      1.04409048	      6.55929513	    -39.20888956	      2.85507088	     -2.63482311	    -34.97167007	     11.69194073	      1.27362241	      6.34897335
      4.19000000	    -17.17219833	     -2.31018869	     -2.11761256	     -1.27087422	     -0.00103504	     -0.23411675	      5.39438738	      8.21586064	     10.84006789	     -4.32667541	      1.88445924	     -4.54185515	      1.80646418	     44.75523255	      0.97511362	      6.82976042	    -37.06460300	      2.72411219	     -2.70909977	    -35.39755520	     11.62096193	      1.16638177	      6.54301489
      4.19500000	    -17.05836521	     -2.20708222	     -2.24731919	     -1.26406011	     -0.00134654	     -0.23402301	      4.63880175	      8.05947817	     10.20996909	     -4.00512981	      1.90795335	     -3.68079850	      3.04754659	     44.62133888	      0.91687285	      7.22076414	    -34.96136898	      2.99834268	     -2.47844240	    -36.76325503	     11.45915851	      1.08052398	      6.61102680
      4.20000000	    -17.12045421	     -2.01441906	     -2.58718064	     -1.25734906	     -0.00185955	     -0.23367058	      4.07000054	      7.82581035	     10.07989603	     -3.52606066	      1.08636257	     -3.74635269	      7.00771032	     44.67430720	      0.76950926	      7.43631778	    -33.02002493	      4.93327226	     -1.71360023	    -45.57921577	     11.47319048	      0.95502450	      6.98895132
      4.20500000	    -17.19245503	     -1.91993551	     -2.70553168	     -1.25054863	     -0.00249788	     -0.23359787	      3.62225957	      7.71038813	      9.61122890	     -3.58580143	      1.99187935	     -2.41959904	      4.67009709	     44.68661337	      0.70710071	      7.95722209	    -30.87287190	      5.48863702	     -1.52133560	    -48.58555906	     11.51327056	      0.88616426	      7.02991228
      4.21000000	    -17.05484323	     -1.74973199	     -2.89384188	     -1.24376160	     -0.00292042	     -0.23333816	      2.86505003	      7.50013149	      9.59218814	     -3.34586996	      1.93266165	     -2.22479993	      4.99467995	     44.40914517	      0.61671074	      8.29123149	    -28.61606580	      5.59079769	     -1.38074018	    -49.20108019	     11.31881941	      0.73501970	      7.19852905
      4.21500000	    -17.14409336	     -1.63237345	     -3.07586414	     -1.23702908	     -0.00377264	     -0.23295460	      2.42359828	      7.37122711	      9.33535755	     -3.18345072	      1.81946674	     -1.87334721	      6.48867512	     44.48904528	      0.41387166	      8.61590638	    -26.71492770	      9.71824463	     -0.19604429	    -68.70192107	     11.36859146	      0.62598795	      7.28447556
